<svg id="Ebene_1" data-name="Ebene 1" xmlns="http://www.w3.org/2000/svg" viewBox="0 0 212 36.932"><defs><style>.cls-1{fill:#485961;}.cls-2{fill:#99cff1;}.cls-3{fill:#0087dc;}.cls-4{fill:#66b7ea;}</style></defs><path class="cls-1" d="M61.171,4.874H71.9a5.541,5.541,0,0,1,5.541,5.541V21.5a1.847,1.847,0,0,1-1.847,1.846h0A1.846,1.846,0,0,1,73.743,21.5V10.415A1.847,1.847,0,0,0,71.9,8.568H61.171V21.5a1.847,1.847,0,0,1-1.847,1.846h0A1.846,1.846,0,0,1,57.477,21.5V1.9A1.846,1.846,0,0,1,59.323.056h0A1.847,1.847,0,0,1,61.171,1.9V4.874Z"/><path class="cls-1" d="M119.407,15.955h-5.246V21.5a1.846,1.846,0,0,1-1.846,1.846h0a1.847,1.847,0,0,1-1.846-1.846V1.9A1.847,1.847,0,0,1,112.314.056h0A1.846,1.846,0,0,1,114.161,1.9v10.36h5.246l5.645-6.728a1.848,1.848,0,0,1,1.414-.66h0a1.846,1.846,0,0,1,1.414,3.033l-5.2,6.2,5.2,6.2a1.846,1.846,0,0,1-1.414,3.033h0a1.848,1.848,0,0,1-1.414-.66l-5.645-6.728Z"/><rect class="cls-1" x="80.46" y="4.874" width="3.694" height="18.468" rx="1.846"/><path class="cls-1" d="M53.266,8.568a1.847,1.847,0,0,0,1.847-1.846h0a1.847,1.847,0,0,0-1.847-1.847h-2.7V1.9A1.847,1.847,0,0,0,48.715.056h0A1.847,1.847,0,0,0,46.867,1.9V17.8a5.541,5.541,0,0,0,5.541,5.541h.858A1.847,1.847,0,0,0,55.113,21.5v0a1.847,1.847,0,0,0-1.847-1.846h-.858A1.847,1.847,0,0,1,50.561,17.8V8.568Z"/><path class="cls-1" d="M101.9,4.874H89.331a1.846,1.846,0,0,0-1.846,1.847V21.5a1.846,1.846,0,0,0,1.846,1.846h0A1.846,1.846,0,0,0,91.178,21.5V8.568H101.9a1.847,1.847,0,0,1,1.847,1.847V21.5a1.846,1.846,0,0,0,1.846,1.846h0a1.847,1.847,0,0,0,1.847-1.846V10.415A5.541,5.541,0,0,0,101.9,4.874Z"/><path class="cls-1" d="M153.725,15.955a1.847,1.847,0,0,0,0,3.694h10.726V15.955ZM148.184,17.8a5.54,5.54,0,0,1,5.541-5.54h10.726V10.415A1.847,1.847,0,0,0,162.6,8.568H151.841a1.847,1.847,0,0,1-1.847-1.846h0a1.847,1.847,0,0,1,1.847-1.847H162.6a5.541,5.541,0,0,1,5.541,5.541V21.5a1.847,1.847,0,0,1-1.846,1.846H153.725a5.541,5.541,0,0,1-5.541-5.541Z"/><path class="cls-1" d="M203.089,15.955h-5.245V21.5A1.847,1.847,0,0,1,196,23.343h0A1.847,1.847,0,0,1,194.15,21.5V1.9A1.847,1.847,0,0,1,196,.056h0A1.847,1.847,0,0,1,197.844,1.9v10.36h5.245l5.645-6.728a1.848,1.848,0,0,1,1.415-.66h0a1.847,1.847,0,0,1,1.415,3.033l-5.2,6.2,5.2,6.2a1.846,1.846,0,0,1-1.414,3.033h0a1.848,1.848,0,0,1-1.415-.66l-5.645-6.728Z"/><path class="cls-1" d="M185.587,4.874H173.014a1.846,1.846,0,0,0-1.846,1.847V21.5a1.846,1.846,0,0,0,1.846,1.846h0a1.846,1.846,0,0,0,1.846-1.846V8.568h10.726a1.847,1.847,0,0,1,1.847,1.847V21.5a1.846,1.846,0,0,0,1.846,1.846h0a1.846,1.846,0,0,0,1.846-1.846V10.415A5.54,5.54,0,0,0,185.587,4.874Z"/><path class="cls-1" d="M144.683,8.568a1.846,1.846,0,0,0,1.846-1.846h0a1.846,1.846,0,0,0-1.846-1.847h-2.7V1.9A1.846,1.846,0,0,0,140.131.056h0A1.847,1.847,0,0,0,138.284,1.9V17.8a5.541,5.541,0,0,0,5.541,5.541h.858a1.846,1.846,0,0,0,1.846-1.846v0a1.846,1.846,0,0,0-1.846-1.846h-.858a1.847,1.847,0,0,1-1.847-1.847V8.568Z"/><path class="cls-1" d="M46.867,29.659h3.76a1.848,1.848,0,0,1,2.057,1.821,1.588,1.588,0,0,1-1.232,1.639,1.732,1.732,0,0,1,1.371,1.756A1.881,1.881,0,0,1,50.745,36.8H46.867Zm3.428,2.86a.779.779,0,1,0,0-1.553H48.388v1.553Zm.054,2.967c.578,0,.921-.31.921-.825a.836.836,0,0,0-.921-.836H48.388v1.661Z"/><path class="cls-1" d="M57.074,29.659h1.542V33.9a1.677,1.677,0,1,0,3.353,0V29.659h1.553v4.284c0,1.778-1.05,2.989-3.224,2.989s-3.224-1.221-3.224-2.978Z"/><path class="cls-1" d="M68.372,34.639a3.134,3.134,0,0,0,2.271.964c.836,0,1.243-.385,1.243-.792,0-.524-.664-.675-1.446-.868-1.168-.268-2.667-.589-2.667-2.217,0-1.188,1.028-2.174,2.71-2.174a3.977,3.977,0,0,1,2.785,1l-.847,1.114a3.065,3.065,0,0,0-2.078-.782c-.653,0-1.017.289-1.017.718,0,.46.653.61,1.424.793,1.178.277,2.678.631,2.678,2.248,0,1.308-.931,2.293-2.86,2.293a4.066,4.066,0,0,1-3.02-1.136Z"/><path class="cls-1" d="M77.561,29.659h1.522V36.8H77.561Z"/><path class="cls-1" d="M85.122,32.144V36.8H83.6V29.659h1.564l3.31,4.488V29.659H90V36.8H88.528Z"/><path class="cls-1" d="M94.515,29.659H99.57V31H96.035v1.51H99.5v1.339h-3.46v1.618H99.57V36.8H94.515Z"/><path class="cls-1" d="M104.207,34.639a3.131,3.131,0,0,0,2.271.964c.835,0,1.242-.385,1.242-.792,0-.524-.664-.675-1.446-.868-1.167-.268-2.667-.589-2.667-2.217,0-1.188,1.028-2.174,2.71-2.174a3.977,3.977,0,0,1,2.785,1l-.846,1.114a3.068,3.068,0,0,0-2.078-.782c-.654,0-1.018.289-1.018.718,0,.46.654.61,1.425.793,1.178.277,2.678.631,2.678,2.248,0,1.308-.932,2.293-2.86,2.293a4.069,4.069,0,0,1-3.021-1.136Z"/><path class="cls-1" d="M113.738,34.639a3.134,3.134,0,0,0,2.271.964c.835,0,1.242-.385,1.242-.792,0-.524-.664-.675-1.445-.868-1.168-.268-2.668-.589-2.668-2.217,0-1.188,1.028-2.174,2.71-2.174a3.975,3.975,0,0,1,2.785,1l-.846,1.114a3.067,3.067,0,0,0-2.078-.782c-.654,0-1.018.289-1.018.718,0,.46.654.61,1.425.793,1.178.277,2.678.631,2.678,2.248,0,1.308-.932,2.293-2.86,2.293a4.069,4.069,0,0,1-3.021-1.136Z"/><path class="cls-1" d="M129.117,34.639a3.134,3.134,0,0,0,2.271.964c.835,0,1.242-.385,1.242-.792,0-.524-.663-.675-1.446-.868-1.166-.268-2.667-.589-2.667-2.217,0-1.188,1.029-2.174,2.71-2.174a3.975,3.975,0,0,1,2.785,1l-.846,1.114a3.065,3.065,0,0,0-2.078-.782c-.653,0-1.017.289-1.017.718,0,.46.653.61,1.424.793,1.178.277,2.678.631,2.678,2.248,0,1.308-.932,2.293-2.86,2.293a4.071,4.071,0,0,1-3.021-1.136Z"/><path class="cls-1" d="M141.691,29.541a3.7,3.7,0,1,1-3.728,3.7A3.589,3.589,0,0,1,141.691,29.541Zm0,1.349a2.162,2.162,0,0,0-2.164,2.347,2.176,2.176,0,1,0,4.338,0A2.169,2.169,0,0,0,141.691,30.89Z"/><path class="cls-1" d="M149.606,29.659h1.52v5.806h3.021V36.8h-4.541Z"/><path class="cls-1" d="M158.056,29.659H159.6V33.9a1.676,1.676,0,1,0,3.352,0V29.659H164.5v4.284c0,1.778-1.05,2.989-3.224,2.989s-3.223-1.221-3.223-2.978Z"/><path class="cls-1" d="M170.66,31h-2.088V29.659h5.7V31h-2.078v5.8H170.66Z"/><path class="cls-1" d="M178.35,29.659h1.521V36.8H178.35Z"/><path class="cls-1" d="M187.775,29.541a3.7,3.7,0,1,1-3.728,3.7A3.589,3.589,0,0,1,187.775,29.541Zm0,1.349a2.161,2.161,0,0,0-2.163,2.347,2.175,2.175,0,1,0,4.337,0A2.169,2.169,0,0,0,187.775,30.89Z"/><path class="cls-1" d="M197.209,32.144V36.8h-1.52V29.659h1.563l3.31,4.488V29.659h1.521V36.8h-1.467Z"/><path class="cls-1" d="M206.944,34.639a3.134,3.134,0,0,0,2.271.964c.836,0,1.243-.385,1.243-.792,0-.524-.664-.675-1.447-.868-1.167-.268-2.666-.589-2.666-2.217,0-1.188,1.028-2.174,2.709-2.174a3.973,3.973,0,0,1,2.785,1l-.846,1.114a3.065,3.065,0,0,0-2.078-.782c-.653,0-1.017.289-1.017.718,0,.46.653.61,1.424.793,1.178.277,2.678.631,2.678,2.248,0,1.308-.932,2.293-2.86,2.293a4.066,4.066,0,0,1-3.02-1.136Z"/><polygon class="cls-2" points="0 26.148 10.728 26.148 10.728 36.876 0 36.876 0 26.148 0 26.148"/><path class="cls-3" d="M0,0H18.438A18.438,18.438,0,0,1,36.876,18.438V36.876H26.148V18.438a7.71,7.71,0,0,0-7.71-7.71H0V0Z"/><path class="cls-4" d="M0,13.074H18.438A5.364,5.364,0,0,1,23.8,18.438V36.876H13.074V23.8H0V13.074Z"/></svg>